<?xml version="1.0" encoding="utf-8"?>
<!DOCTYPE svg PUBLIC "-//W3C//DTD SVG 1.0//EN"
        "http://www.w3.org/TR/2001/REC-SVG-20010904/DTD/svg10.dtd">
<svg
        version="1.0"
        xmlns="http://www.w3.org/2000/svg"
        width="200"
        height="200"
        viewBox="0 0 500 500"
        preserveAspectRatio="xMidYMid meet">

    <g fill="currentColor">
        <path d="M369 467.6 c-1.4 -0.8 -4.3 -3.6 -6.5 -6.3 -3.4 -4.1 -33.5 -38.7 -42.9 -49.3 -4.8 -5.5 -16.8 -19.1 -20.1 -22.9 -1.6 -2 -4.8 -5.6 -7.1 -8.1 -2.2 -2.5 -5.2 -5.8 -6.6 -7.5 -1.4 -1.6 -9 -10.4 -16.9 -19.4 -7.9 -9.1 -17.1 -19.7 -20.5 -23.5 -8 -9.3 -12.3 -13 -19.2 -16.5 -7.2 -3.6 -11.1 -4.3 -57.4 -10.1 -4.6 -0.6 -11 -1.5 -14.3 -2 -6.2 -1 -34.1 -4.8 -55 -7.5 -6.6 -0.9 -15.4 -2 -19.5 -2.6 -9.2 -1.3 -18 -2.4 -28.5 -3.8 -4.4 -0.6 -11.5 -1.5 -15.8 -2 -12.6 -1.7 -16.7 -4.7 -16.7 -12.1 0 -4.3 2.8 -6.8 21.5 -19.3 26.7 -17.7 75.2 -50.5 83.7 -56.4 l7.7 -5.4 5.7 8.8 c18.7 29 49.5 56.6 87.8 78.7 47.4 27.3 103.2 43.6 149 43.6 l7.8 0 -0.7 66.8 c-0.3 36.7 -0.8 68.1 -1.1 69.8 -0.9 6.2 -9 10.1 -14.4 7z"/>
        <path d="M350 300.5 c-16.6 -2.1 -33.6 -5.8 -51 -11 -23.8 -7.1 -53.3 -20.5 -76.7 -34.7 -9.7 -5.9 -33.5 -22.5 -35.3 -24.7 -0.3 -0.3 -3.6 -3.3 -7.5 -6.6 -34.5 -29.6 -56.5 -68.3 -56.5 -99.3 0 -28.2 19.2 -53.3 49.3 -64.3 35.1 -12.9 82.8 -10.7 134.8 6 5.3 1.7 10.2 3.1 10.8 3.1 1.1 0 36.7 -23.3 38.1 -24.9 0.3 -0.3 4.5 -3.2 9.4 -6.5 10.6 -7 15 -7.7 19.4 -3.2 l2.7 2.7 -0.3 33.3 -0.3 33.4 8.3 5.8 c19 13.3 33.6 26.2 35.8 31.4 0.9 2.2 0.9 3.7 0.1 6.3 -1.6 4.6 -4.1 6.8 -8.9 7.4 -4.4 0.6 -8.1 -1 -12.7 -5.3 -6.9 -6.5 -19.4 -16.4 -20.8 -16.4 -1.3 0 -1.5 6.2 -2.1 45.8 -0.3 25.1 -0.8 57.6 -1 72.2 -0.3 14.6 -0.1 27.2 0.3 27.9 0.7 1.1 2.3 1.2 9.2 0.2 24.7 -3.6 38.3 -9.2 49.2 -20.5 10.1 -10.5 14.1 -26.5 10.2 -41.6 -2.3 -9.4 -3.3 -11.9 -8 -21.1 -5.4 -10.8 -5.7 -14.5 -1.6 -19.1 2.6 -2.9 3.6 -3.3 7.9 -3.3 6.6 0 8.7 2 14.5 13.8 18.4 37.7 12.7 72.9 -15.2 94.1 -13.1 9.9 -28.6 15.8 -50.1 19.1 -11.7 1.8 -37.5 1.8 -52 0z m-175.3 -134.1 c5.4 -3.7 17 -11.5 25.8 -17.4 17.9 -12 91.8 -62 92.4 -62.6 1.7 -1.6 -7.7 -4.4 -27.9 -8.3 -16.3 -3.1 -26.3 -4.1 -41 -4.1 -31 0.1 -53.4 7.2 -66.8 21.4 -13.4 14.2 -15.4 34.4 -5.5 56.6 3 6.8 11.4 21 12.4 21 0.5 0 5.2 -3 10.6 -6.6z"/>
    </g>
</svg>
