<svg
        xmlns="http://www.w3.org/2000/svg"
        viewBox="0 0 200 200"
        fill="currentColor"
>
    <path d="M98.5 4.5
    C108.132 13.6311 117.632 22.9644 127 32.5
    127.667 40.8333 127.667 49.1667 127 57.5
    121 51.5 115 45.5 109 39.5
    108.5 56.1633 108.333 72.83 108.5 89.5
    125.503 89.6666 142.503 89.4999 159.5 89
    153.5 83 147.5 77 141.5 71
    149.833 70.3333 158.167 70.3333 166.5 71
    175.53 80.3639 184.863 89.3639 194.5 98
    185.167 107.333 175.833 116.667 166.5 126
    158.167 126.667 149.833 126.667 141.5 126
    147.5 120 153.5 114 159.5 108
    142.503 107.5 125.503 107.333 108.5 107.5
    108.333 124.837 108.5 142.17 109 159.5
    115 153.5 121 147.5 127 141.5
    127.667 149.833 127.667 158.167 127 166.5
    117.667 175.833 108.333 185.167 99 194.5
    90 185.167 81 175.833 72 166.5
    71.3333 158.167 71.3333 149.833 72 141.5
    78 147.5 84 153.5 90 159.5
    90.4999 142.17 90.6666 124.837 90.5 107.5
    73.4967 107.333 56.4967 107.5 39.5 108
    45.5 114 51.5 120 57.5 126
    49.1667 126.667 40.8333 126.667 32.5 126
    23.1667 116.667 13.8333 107.333 4.5 98
    14.137 89.3639 23.4703 80.3639 32.5 71
    40.8333 70.3333 49.1667 70.3333 57.5 71
    51.5 77 45.5 83 39.5 89
    56.4967 89.4999 73.4967 89.6666 90.5 89.5
    90.6666 72.83 90.4999 56.1633 90 39.5
    84 45.5 78 51.5 72 57.5
    71.3333 48.8333 71.3333 40.1667 72 31.5
    81.0356 22.6317 89.869 13.6317 98.5 4.5
    Z"
    />
</svg>
